<svg xmlns="http://www.w3.org/2000/svg" viewBox="0 0 486 118"><defs><style>.cls-1{fill:#fe5e00;}.cls-2{fill:#fff;}</style></defs><g id="Layer_2" data-name="Layer 2"><g id="Layer_1-2" data-name="Layer 1"><rect class="cls-1" width="486" height="118" rx="59"/><ellipse class="cls-2" cx="65.5" cy="59" rx="29.5" ry="25"/><path class="cls-2" d="M44,71.28a21,21,0,0,1-7,12c-6,5,38-15,41-17S44,71.28,44,71.28Z"/><path class="cls-2" d="M129.93,51.55h-8l-1.51,4.54h-4.83l8.21-22H128l8.25,22h-4.82Zm-6.74-3.68h5.51l-2.77-8.25Z"/><path class="cls-2" d="M152.07,48.05a9.79,9.79,0,0,1-1.72,6.06,5.5,5.5,0,0,1-4.64,2.28,5.11,5.11,0,0,1-4-1.73v7.72h-4.37V39.71h4l.16,1.6a5.13,5.13,0,0,1,4.14-1.9,5.53,5.53,0,0,1,4.71,2.24,10.07,10.07,0,0,1,1.68,6.17Zm-4.37-.32a6.47,6.47,0,0,0-.81-3.53A2.66,2.66,0,0,0,144.53,43a2.87,2.87,0,0,0-2.83,1.58v6.7a2.92,2.92,0,0,0,2.86,1.62Q147.7,52.86,147.7,47.73Z"/><path class="cls-2" d="M169.52,48.05a9.86,9.86,0,0,1-1.71,6.06,5.52,5.52,0,0,1-4.64,2.28,5.08,5.08,0,0,1-4-1.73v7.72h-4.38V39.71h4.06l.15,1.6a5.14,5.14,0,0,1,4.15-1.9,5.53,5.53,0,0,1,4.7,2.24,10.07,10.07,0,0,1,1.68,6.17Zm-4.37-.32a6.47,6.47,0,0,0-.81-3.53A2.65,2.65,0,0,0,162,43a2.86,2.86,0,0,0-2.83,1.58v6.7A2.9,2.9,0,0,0,162,52.86C164.1,52.86,165.15,51.15,165.15,47.73Z"/><path class="cls-2" d="M176.85,56.09h-4.39V32.84h4.39Z"/><path class="cls-2" d="M186.57,49.9l3-10.19h4.69L187.7,58.63l-.36.86a5,5,0,0,1-4.84,3.21,6.91,6.91,0,0,1-1.94-.29V59.1h.66a3.65,3.65,0,0,0,1.86-.37,2.53,2.53,0,0,0,1-1.26l.51-1.35-5.73-16.42h4.71Z"/><path class="cls-2" d="M204.93,56.09V42.92h-2.44V39.71h2.44V38.32A5.67,5.67,0,0,1,206.51,34a6.14,6.14,0,0,1,4.43-1.52,10.25,10.25,0,0,1,2.22.3l0,3.39a5.7,5.7,0,0,0-1.33-.13c-1.65,0-2.47.77-2.47,2.31v1.32h3.25v3.21h-3.25V56.09Z"/><path class="cls-2" d="M214.16,47.75a9.66,9.66,0,0,1,.94-4.35,7,7,0,0,1,2.7-2.95,7.86,7.86,0,0,1,4.1-1,7.46,7.46,0,0,1,5.41,2,8.14,8.14,0,0,1,2.34,5.51l0,1.12a8.53,8.53,0,0,1-2.11,6,7.3,7.3,0,0,1-5.64,2.28,7.38,7.38,0,0,1-5.66-2.27,8.76,8.76,0,0,1-2.11-6.18Zm4.38.31a6.19,6.19,0,0,0,.87,3.57,2.92,2.92,0,0,0,2.52,1.23,2.89,2.89,0,0,0,2.48-1.22,6.72,6.72,0,0,0,.89-3.9,6.1,6.1,0,0,0-.89-3.55,3.12,3.12,0,0,0-5,0A6.9,6.9,0,0,0,218.54,48.06Z"/><path class="cls-2" d="M241.57,43.81a11.79,11.79,0,0,0-1.57-.12c-1.65,0-2.74.56-3.25,1.68V56.09h-4.38V39.71h4.13l.12,1.95a4.06,4.06,0,0,1,3.65-2.25,4.56,4.56,0,0,1,1.36.19Z"/><path class="cls-2" d="M256.64,35.68v4h2.8v3.21h-2.8v8.17a2,2,0,0,0,.34,1.3,1.74,1.74,0,0,0,1.34.4,6.94,6.94,0,0,0,1.28-.11V56a9,9,0,0,1-2.65.39c-3.06,0-4.63-1.55-4.69-4.65V42.92h-2.39V39.71h2.39v-4Z"/><path class="cls-2" d="M266.14,41.49a5.46,5.46,0,0,1,4.38-2.08q5.33,0,5.4,6.19V56.09h-4.37V45.72a3.06,3.06,0,0,0-.61-2.08,2.58,2.58,0,0,0-2-.68,3,3,0,0,0-2.79,1.49V56.09h-4.37V32.84h4.37Z"/><path class="cls-2" d="M279.19,35.47a2.14,2.14,0,0,1,.66-1.62,2.82,2.82,0,0,1,3.58,0,2.32,2.32,0,0,1,0,3.25,2.8,2.8,0,0,1-3.56,0A2.12,2.12,0,0,1,279.19,35.47Zm4.65,20.62h-4.39V39.71h4.39Z"/><path class="cls-2" d="M296.31,51.56a1.41,1.41,0,0,0-.8-1.26,8.87,8.87,0,0,0-2.55-.83q-5.83-1.23-5.84-5a4.47,4.47,0,0,1,1.81-3.64,7.26,7.26,0,0,1,4.73-1.46,7.92,7.92,0,0,1,5,1.46,4.65,4.65,0,0,1,1.87,3.82h-4.38a2.12,2.12,0,0,0-.6-1.55,2.57,2.57,0,0,0-1.89-.62,2.67,2.67,0,0,0-1.72.5,1.6,1.6,0,0,0-.6,1.27,1.35,1.35,0,0,0,.69,1.18,7.09,7.09,0,0,0,2.32.77,20,20,0,0,1,2.76.73q3.47,1.28,3.46,4.41A4.26,4.26,0,0,1,298.64,55a8.26,8.26,0,0,1-5,1.39,8.62,8.62,0,0,1-3.65-.74,6.15,6.15,0,0,1-2.51-2,4.69,4.69,0,0,1-.9-2.76h4.14a2.29,2.29,0,0,0,.87,1.79,3.43,3.43,0,0,0,2.15.62,3.17,3.17,0,0,0,1.9-.48A1.5,1.5,0,0,0,296.31,51.56Z"/><path class="cls-2" d="M315.73,39.71V57a5.83,5.83,0,0,1-1.44,4.21,5.45,5.45,0,0,1-4.15,1.51,8.52,8.52,0,0,1-2.16-.26V59a8.15,8.15,0,0,0,1.38.13q2,0,2-2.1V39.71ZM311,35.47a2.14,2.14,0,0,1,.66-1.62,2.84,2.84,0,0,1,3.59,0,2.31,2.31,0,0,1,0,3.25,2.78,2.78,0,0,1-3.55,0A2.13,2.13,0,0,1,311,35.47Z"/><path class="cls-2" d="M318.47,47.75a9.66,9.66,0,0,1,.94-4.35,6.83,6.83,0,0,1,2.7-2.95,7.86,7.86,0,0,1,4.1-1,7.48,7.48,0,0,1,5.41,2A8.23,8.23,0,0,1,334,46.94l0,1.12a8.57,8.57,0,0,1-2.1,6,8.15,8.15,0,0,1-11.3,0,8.71,8.71,0,0,1-2.11-6.18Zm4.37.31a6.19,6.19,0,0,0,.88,3.57,3.16,3.16,0,0,0,5,0,6.72,6.72,0,0,0,.89-3.9,6.1,6.1,0,0,0-.89-3.55,2.91,2.91,0,0,0-2.51-1.26,2.87,2.87,0,0,0-2.49,1.25A6.89,6.89,0,0,0,322.84,48.06Z"/><path class="cls-2" d="M351.44,48.05a9.94,9.94,0,0,1-1.68,6.14,5.59,5.59,0,0,1-4.69,2.2,5.12,5.12,0,0,1-4.26-2l-.2,1.74h-3.93V32.84h4.37v8.34a5,5,0,0,1,4-1.77,5.6,5.6,0,0,1,4.7,2.2,9.9,9.9,0,0,1,1.71,6.2Zm-4.38-.32a6.55,6.55,0,0,0-.78-3.62A2.66,2.66,0,0,0,343.93,43a2.9,2.9,0,0,0-2.88,1.71v6.47A2.93,2.93,0,0,0,344,52.86a2.71,2.71,0,0,0,2.79-2.09A10.87,10.87,0,0,0,347.06,47.73Z"/><path class="cls-2" d="M119.58,63l6.3,15.06L132.19,63h1.92V80.09h-1.44V72.66l.12-7.62-6.35,15h-1.12L119,65.1l.11,7.51v7.48h-1.44V63Z"/><path class="cls-2" d="M143,80.32a5.41,5.41,0,0,1-2.92-.8,5.48,5.48,0,0,1-2-2.22,7,7,0,0,1-.72-3.19v-.5a7.4,7.4,0,0,1,.71-3.3,5.68,5.68,0,0,1,2-2.3,4.86,4.86,0,0,1,2.74-.84,4.57,4.57,0,0,1,3.66,1.58,6.35,6.35,0,0,1,1.36,4.31v.78h-9.05v.27A5.28,5.28,0,0,0,140,77.7a3.92,3.92,0,0,0,3.11,1.44,4.58,4.58,0,0,0,2-.41,4.39,4.39,0,0,0,1.57-1.32l.88.67A5.13,5.13,0,0,1,143,80.32Zm-.26-11.95a3.47,3.47,0,0,0-2.66,1.16,5.26,5.26,0,0,0-1.32,3.12h7.6v-.16a4.6,4.6,0,0,0-1-3A3.23,3.23,0,0,0,142.76,68.37Z"/><path class="cls-2" d="M158.1,76.86a2,2,0,0,0-.84-1.67,6.46,6.46,0,0,0-2.52-1,11.32,11.32,0,0,1-2.62-.82,3.54,3.54,0,0,1-1.38-1.13,2.85,2.85,0,0,1-.45-1.62,3,3,0,0,1,1.25-2.48,5.09,5.09,0,0,1,3.21-1,5.19,5.19,0,0,1,3.4,1A3.36,3.36,0,0,1,159.44,71H158a2.27,2.27,0,0,0-.93-1.85,3.61,3.61,0,0,0-2.35-.74,3.67,3.67,0,0,0-2.22.61,1.91,1.91,0,0,0-.84,1.6,1.7,1.7,0,0,0,.7,1.47,7.27,7.27,0,0,0,2.54,1,12.63,12.63,0,0,1,2.77.92,3.57,3.57,0,0,1,1.36,1.19,3,3,0,0,1,.45,1.67,3,3,0,0,1-1.3,2.57,5.53,5.53,0,0,1-3.38,1,5.72,5.72,0,0,1-3.59-1.07,3.31,3.31,0,0,1-1.38-2.71h1.41a2.41,2.41,0,0,0,1,1.91,4.2,4.2,0,0,0,2.52.69,4,4,0,0,0,2.37-.65A1.93,1.93,0,0,0,158.1,76.86Z"/><path class="cls-2" d="M170.25,76.86a2,2,0,0,0-.83-1.67,6.52,6.52,0,0,0-2.53-1,11.48,11.48,0,0,1-2.62-.82,3.54,3.54,0,0,1-1.38-1.13,2.85,2.85,0,0,1-.45-1.62,3,3,0,0,1,1.25-2.48,5.09,5.09,0,0,1,3.21-1,5.22,5.22,0,0,1,3.41,1A3.38,3.38,0,0,1,171.59,71h-1.41a2.27,2.27,0,0,0-.93-1.85,3.61,3.61,0,0,0-2.35-.74,3.67,3.67,0,0,0-2.22.61,1.91,1.91,0,0,0-.84,1.6,1.72,1.72,0,0,0,.7,1.47,7.36,7.36,0,0,0,2.54,1,12.45,12.45,0,0,1,2.77.92,3.68,3.68,0,0,1,1.37,1.19,3.08,3.08,0,0,1,.44,1.67,3,3,0,0,1-1.29,2.57,5.56,5.56,0,0,1-3.39,1,5.72,5.72,0,0,1-3.59-1.07A3.32,3.32,0,0,1,162,76.54h1.4a2.44,2.44,0,0,0,1,1.91,4.22,4.22,0,0,0,2.52.69,4,4,0,0,0,2.37-.65A1.93,1.93,0,0,0,170.25,76.86Z"/><path class="cls-2" d="M182.82,80.09a6.72,6.72,0,0,1-.27-1.77,4.91,4.91,0,0,1-1.88,1.48,5.76,5.76,0,0,1-2.42.52,4.24,4.24,0,0,1-3-1,3.3,3.3,0,0,1-1.13-2.58,3.39,3.39,0,0,1,1.54-2.93A7.4,7.4,0,0,1,180,72.72h2.55V71.27a2.75,2.75,0,0,0-.84-2.13,3.48,3.48,0,0,0-2.45-.78,3.82,3.82,0,0,0-2.42.75,2.23,2.23,0,0,0-1,1.8h-1.41a3.26,3.26,0,0,1,1.41-2.62,5.41,5.41,0,0,1,3.45-1.11,5,5,0,0,1,3.35,1.06,3.8,3.8,0,0,1,1.26,3v6a7.41,7.41,0,0,0,.39,2.76v.14Zm-4.41-1a4.7,4.7,0,0,0,2.51-.68,4,4,0,0,0,1.62-1.82V73.79H180a6.28,6.28,0,0,0-3.28.77,2.37,2.37,0,0,0-.4,3.82A3,3,0,0,0,178.41,79.08Z"/><path class="cls-2" d="M187.11,73.63a7.71,7.71,0,0,1,1.31-4.72A4.26,4.26,0,0,1,192,67.17a4.42,4.42,0,0,1,3.94,2.06l.07-1.82h1.31V79.83A5.36,5.36,0,0,1,196,83.71a4.9,4.9,0,0,1-3.71,1.43,5.73,5.73,0,0,1-2.53-.59A4.92,4.92,0,0,1,187.82,83l.79-.84A4.45,4.45,0,0,0,192.15,84a3.6,3.6,0,0,0,2.74-1,4.19,4.19,0,0,0,1-2.88V78.45A4.54,4.54,0,0,1,192,80.32a4.23,4.23,0,0,1-3.54-1.76,7.64,7.64,0,0,1-1.33-4.74Zm1.41.25a6.59,6.59,0,0,0,1,3.82,3.13,3.13,0,0,0,2.74,1.4,3.74,3.74,0,0,0,3.67-2.32V70.89A4,4,0,0,0,194.49,69a3.81,3.81,0,0,0-2.23-.64,3.16,3.16,0,0,0-2.75,1.39A7,7,0,0,0,188.52,73.88Z"/><path class="cls-2" d="M205.89,80.32a5.41,5.41,0,0,1-2.92-.8,5.48,5.48,0,0,1-2-2.22,7,7,0,0,1-.72-3.19v-.5a7.4,7.4,0,0,1,.71-3.3,5.68,5.68,0,0,1,2-2.3,4.86,4.86,0,0,1,2.74-.84,4.61,4.61,0,0,1,3.67,1.58,6.4,6.4,0,0,1,1.35,4.31v.78H201.6v.27a5.28,5.28,0,0,0,1.24,3.59A3.92,3.92,0,0,0,206,79.14a4.65,4.65,0,0,0,2-.41,4.45,4.45,0,0,0,1.56-1.32l.88.67A5.13,5.13,0,0,1,205.89,80.32Zm-.26-11.95A3.47,3.47,0,0,0,203,69.53a5.32,5.32,0,0,0-1.32,3.12h7.6v-.16a4.55,4.55,0,0,0-1-3A3.21,3.21,0,0,0,205.63,68.37Z"/><path class="cls-2" d="M218.44,73.56a7.46,7.46,0,0,1,.71-3.29,5.33,5.33,0,0,1,4.94-3.1,5.18,5.18,0,0,1,4.1,1.78,6.81,6.81,0,0,1,1.57,4.7V74a7.44,7.44,0,0,1-.71,3.31,5.23,5.23,0,0,1-2,2.26,5.42,5.42,0,0,1-2.95.8A5.21,5.21,0,0,1,220,78.55a6.86,6.86,0,0,1-1.58-4.71Zm1.41.39A5.73,5.73,0,0,0,221,77.68a4,4,0,0,0,6.16,0,5.92,5.92,0,0,0,1.18-3.85v-.27a6.42,6.42,0,0,0-.54-2.66A4.29,4.29,0,0,0,226.32,69a3.88,3.88,0,0,0-2.23-.66A3.75,3.75,0,0,0,221,69.84a5.94,5.94,0,0,0-1.18,3.85Z"/><path class="cls-2" d="M240.81,78.48a4.54,4.54,0,0,1-4,1.84,3.9,3.9,0,0,1-3.08-1.18,5.17,5.17,0,0,1-1.08-3.48V67.41H234v8.07c0,2.42,1,3.62,2.93,3.62s3.32-.84,3.86-2.52V67.41h1.41V80.09h-1.36Z"/><path class="cls-2" d="M251.7,68.6a5.7,5.7,0,0,0-.95-.08,3.43,3.43,0,0,0-2.22.73,4,4,0,0,0-1.29,2.13v8.71h-1.4V67.41h1.37l0,2a3.72,3.72,0,0,1,3.57-2.25,2.38,2.38,0,0,1,.93.15Z"/><path class="cls-2" d="M269.29,75.29h-7.75l-1.75,4.8h-1.52L264.73,63h1.37l6.46,17.07h-1.5ZM262,74.07h6.84l-3.42-9.29Z"/><path class="cls-2" d="M276.83,80.09h-1.45V63h1.45Z"/><path class="cls-2" d="M295,80.09a6.72,6.72,0,0,1-.27-1.77,5,5,0,0,1-1.88,1.48,5.76,5.76,0,0,1-2.42.52,4.24,4.24,0,0,1-3-1,3.3,3.3,0,0,1-1.13-2.58,3.39,3.39,0,0,1,1.54-2.93,7.38,7.38,0,0,1,4.29-1.07h2.54V71.27a2.74,2.74,0,0,0-.83-2.13,3.48,3.48,0,0,0-2.45-.78,3.82,3.82,0,0,0-2.42.75,2.23,2.23,0,0,0-1,1.8h-1.41A3.26,3.26,0,0,1,288,68.28a5.39,5.39,0,0,1,3.45-1.11,5,5,0,0,1,3.35,1.06,3.8,3.8,0,0,1,1.26,3v6a7.41,7.41,0,0,0,.39,2.76v.14Zm-4.41-1a4.72,4.72,0,0,0,2.51-.68,3.94,3.94,0,0,0,1.61-1.82V73.79h-2.5a6.25,6.25,0,0,0-3.28.77,2.37,2.37,0,0,0-.4,3.82A3,3,0,0,0,290.56,79.08Z"/><path class="cls-2" d="M307.41,76.86a2,2,0,0,0-.84-1.67,6.53,6.53,0,0,0-2.52-1,11.32,11.32,0,0,1-2.62-.82,3.54,3.54,0,0,1-1.38-1.13,2.86,2.86,0,0,1-.46-1.62,3,3,0,0,1,1.26-2.48,5.05,5.05,0,0,1,3.21-1,5.19,5.19,0,0,1,3.4,1A3.36,3.36,0,0,1,308.75,71h-1.41a2.27,2.27,0,0,0-.93-1.85,3.63,3.63,0,0,0-2.35-.74,3.67,3.67,0,0,0-2.22.61,1.91,1.91,0,0,0-.84,1.6,1.7,1.7,0,0,0,.7,1.47,7.27,7.27,0,0,0,2.54,1,12.63,12.63,0,0,1,2.77.92,3.57,3.57,0,0,1,1.36,1.19,3,3,0,0,1,.45,1.67,3,3,0,0,1-1.3,2.57,5.53,5.53,0,0,1-3.38,1,5.72,5.72,0,0,1-3.59-1.07,3.31,3.31,0,0,1-1.38-2.71h1.41a2.41,2.41,0,0,0,1,1.91,4.18,4.18,0,0,0,2.52.69,4,4,0,0,0,2.37-.65A1.93,1.93,0,0,0,307.41,76.86Z"/><path class="cls-2" d="M319.56,76.86a2,2,0,0,0-.83-1.67,6.52,6.52,0,0,0-2.53-1,11.48,11.48,0,0,1-2.62-.82,3.54,3.54,0,0,1-1.38-1.13,2.85,2.85,0,0,1-.45-1.62A3,3,0,0,1,313,68.15a5.09,5.09,0,0,1,3.21-1,5.22,5.22,0,0,1,3.41,1A3.38,3.38,0,0,1,320.9,71h-1.41a2.27,2.27,0,0,0-.93-1.85,3.61,3.61,0,0,0-2.35-.74A3.67,3.67,0,0,0,314,69a1.91,1.91,0,0,0-.84,1.6,1.72,1.72,0,0,0,.7,1.47,7.36,7.36,0,0,0,2.54,1,12.45,12.45,0,0,1,2.77.92,3.57,3.57,0,0,1,1.36,1.19,3,3,0,0,1,.45,1.67,3,3,0,0,1-1.3,2.57,5.53,5.53,0,0,1-3.38,1,5.72,5.72,0,0,1-3.59-1.07,3.3,3.3,0,0,1-1.37-2.71h1.4a2.44,2.44,0,0,0,1,1.91,4.22,4.22,0,0,0,2.52.69,4,4,0,0,0,2.37-.65A1.93,1.93,0,0,0,319.56,76.86Z"/><path class="cls-2" d="M324,63.74a.93.93,0,0,1,.26-.66.88.88,0,0,1,.7-.28.92.92,0,0,1,.71.28,1,1,0,0,1,0,1.33,1,1,0,0,1-.71.27.91.91,0,0,1-.7-.27A.94.94,0,0,1,324,63.74Zm1.65,16.35h-1.4V67.41h1.4Z"/><path class="cls-2" d="M337.09,76.86a2,2,0,0,0-.83-1.67,6.52,6.52,0,0,0-2.53-1,11.48,11.48,0,0,1-2.62-.82,3.54,3.54,0,0,1-1.38-1.13,2.85,2.85,0,0,1-.45-1.62,3,3,0,0,1,1.25-2.48,5.09,5.09,0,0,1,3.21-1,5.22,5.22,0,0,1,3.41,1A3.38,3.38,0,0,1,338.43,71H337a2.27,2.27,0,0,0-.93-1.85,3.61,3.61,0,0,0-2.35-.74,3.67,3.67,0,0,0-2.22.61,1.91,1.91,0,0,0-.84,1.6,1.72,1.72,0,0,0,.7,1.47,7.36,7.36,0,0,0,2.54,1,12.27,12.27,0,0,1,2.77.92,3.68,3.68,0,0,1,1.37,1.19,3.08,3.08,0,0,1,.44,1.67,3,3,0,0,1-1.29,2.57,5.55,5.55,0,0,1-3.38,1,5.73,5.73,0,0,1-3.6-1.07,3.32,3.32,0,0,1-1.37-2.71h1.4a2.44,2.44,0,0,0,1,1.91,4.23,4.23,0,0,0,2.53.69,4,4,0,0,0,2.36-.65A1.93,1.93,0,0,0,337.09,76.86Z"/><path class="cls-2" d="M343.83,64.16v3.25h2.63v1.15h-2.63V77a2.7,2.7,0,0,0,.38,1.58,1.5,1.5,0,0,0,1.28.51,8.47,8.47,0,0,0,1.13-.12l.06,1.14a4.64,4.64,0,0,1-1.5.2,2.51,2.51,0,0,1-2.1-.84,4,4,0,0,1-.65-2.46V68.56h-2.34V67.41h2.34V64.16Z"/><path class="cls-2" d="M357.37,80.09a6.72,6.72,0,0,1-.27-1.77,4.91,4.91,0,0,1-1.88,1.48,5.72,5.72,0,0,1-2.42.52,4.24,4.24,0,0,1-3-1,3.3,3.3,0,0,1-1.13-2.58,3.39,3.39,0,0,1,1.54-2.93,7.4,7.4,0,0,1,4.29-1.07h2.55V71.27a2.75,2.75,0,0,0-.84-2.13,3.46,3.46,0,0,0-2.44-.78,3.83,3.83,0,0,0-2.43.75,2.23,2.23,0,0,0-1,1.8H349a3.26,3.26,0,0,1,1.41-2.62,5.41,5.41,0,0,1,3.46-1.11,5,5,0,0,1,3.34,1.06,3.8,3.8,0,0,1,1.26,3v6a7.41,7.41,0,0,0,.39,2.76v.14Zm-4.41-1a4.76,4.76,0,0,0,2.52-.68,4,4,0,0,0,1.61-1.82V73.79h-2.51a6.28,6.28,0,0,0-3.28.77,2.32,2.32,0,0,0-1.19,2,2.27,2.27,0,0,0,.8,1.77A3,3,0,0,0,353,79.08Z"/><path class="cls-2" d="M363.56,67.41l0,2.16a5.05,5.05,0,0,1,1.78-1.78,4.65,4.65,0,0,1,2.36-.62,3.8,3.8,0,0,1,3,1.15,5.17,5.17,0,0,1,1,3.45v8.32h-1.39V71.75a3.91,3.91,0,0,0-.72-2.53,2.85,2.85,0,0,0-2.27-.83,3.49,3.49,0,0,0-2.3.82,4.74,4.74,0,0,0-1.49,2.19v8.69h-1.39V67.41Z"/><path class="cls-2" d="M377.58,64.16v3.25h2.63v1.15h-2.63V77a2.7,2.7,0,0,0,.38,1.58,1.5,1.5,0,0,0,1.28.51,8.47,8.47,0,0,0,1.13-.12l.06,1.14a4.64,4.64,0,0,1-1.5.2,2.51,2.51,0,0,1-2.1-.84,4,4,0,0,1-.65-2.46V68.56h-2.34V67.41h2.34V64.16Z"/></g></g></svg>