<svg id="Layer_1" data-name="Layer 1" xmlns="http://www.w3.org/2000/svg" viewBox="0 0 700 169.96"><defs><style>.cls-1{fill:#fe5e00;}.cls-2{fill:#fff;}</style></defs><path class="cls-1" d="M85-.48H615a85,85,0,0,1,85,85h0a85,85,0,0,1-85,85H85a85,85,0,0,1-85-85H0A85,85,0,0,1,85-.48Z" transform="translate(0 0.48)"/><ellipse class="cls-2" cx="112.96" cy="84.92" rx="47.61" ry="40.35"/><path class="cls-2" d="M78.58,104.25a33.94,33.94,0,0,1-11.3,19.37c-9.68,8.07,61.33-24.21,66.17-27.44S78.58,104.25,78.58,104.25Z" transform="translate(0 0.48)"/><path class="cls-2" d="M222.45,87.91q-8.65-2.49-12.59-6.11a11.67,11.67,0,0,1-3.94-9,12.34,12.34,0,0,1,4.81-10Q215.55,59,223.25,59a21,21,0,0,1,9.37,2A15.44,15.44,0,0,1,239,66.59a14.28,14.28,0,0,1,2.26,7.81h-6.76a9.33,9.33,0,0,0-2.94-7.3c-2-1.76-4.73-2.65-8.3-2.65-3.31,0-5.9.73-7.75,2.19a7.32,7.32,0,0,0-2.79,6.09A6.57,6.57,0,0,0,215.36,78q2.64,2.16,9,3.95a41.42,41.42,0,0,1,10,3.94,15,15,0,0,1,5.32,5,12.81,12.81,0,0,1,1.73,6.76,11.93,11.93,0,0,1-4.83,9.93q-4.83,3.72-12.92,3.73a23.81,23.81,0,0,1-9.8-2,16.44,16.44,0,0,1-7-5.51,13.46,13.46,0,0,1-2.47-8h6.76a8.77,8.77,0,0,0,3.41,7.3q3.42,2.69,9.12,2.68,5.33,0,8.16-2.17a7.06,7.06,0,0,0,2.84-5.92A6.91,6.91,0,0,0,232,92Q229.35,89.91,222.45,87.91Z" transform="translate(0 0.48)"/><path class="cls-2" d="M255.05,72.75l.17,4.2a14,14,0,0,1,11.24-4.9q7.95,0,10.82,6.09a14.34,14.34,0,0,1,4.92-4.41,14.55,14.55,0,0,1,7.16-1.68q12.47,0,12.68,13.2v25.39h-6.48v-25c0-2.7-.62-4.73-1.86-6.07s-3.31-2-6.23-2a8.59,8.59,0,0,0-6,2.15,8.75,8.75,0,0,0-2.76,5.8v25.14H272.2V85.81q0-8.27-8.09-8.26-6.36,0-8.71,5.42v27.67h-6.48V72.75Z" transform="translate(0 0.48)"/><path class="cls-2" d="M335.2,110.64a13.34,13.34,0,0,1-.91-4,14.48,14.48,0,0,1-10.79,4.7,13.39,13.39,0,0,1-9.19-3.17,10.27,10.27,0,0,1-3.59-8,10.71,10.71,0,0,1,4.5-9.19q4.5-3.27,12.66-3.27h6.3v-3a7.29,7.29,0,0,0-2-5.41q-2-2-6-2A9.41,9.41,0,0,0,320.35,79,5.16,5.16,0,0,0,318,83.25h-6.51a9,9,0,0,1,2-5.48A13.86,13.86,0,0,1,319,73.59a18.31,18.31,0,0,1,7.58-1.54q6.54,0,10.26,3.27a11.83,11.83,0,0,1,3.85,9v17.44a21.32,21.32,0,0,0,1.33,8.3v.56Zm-10.75-4.94a11.37,11.37,0,0,0,5.77-1.58,9.55,9.55,0,0,0,4-4.09V92.25H329.1q-11.89,0-11.9,7a5.9,5.9,0,0,0,2,4.76A7.77,7.77,0,0,0,324.45,105.7Z" transform="translate(0 0.48)"/><path class="cls-2" d="M369.13,78.56a19.89,19.89,0,0,0-3.19-.24q-6.37,0-8.65,5.42v26.9h-6.48V72.75h6.31l.1,4.38a10.08,10.08,0,0,1,9-5.08,6.61,6.61,0,0,1,2.88.49Z" transform="translate(0 0.48)"/><path class="cls-2" d="M385.62,63.58v9.17h7.07v5h-7.07v23.52a5.27,5.27,0,0,0,.94,3.42,4,4,0,0,0,3.23,1.14,15.77,15.77,0,0,0,3.08-.42v5.22a19.1,19.1,0,0,1-5,.7q-4.33,0-6.54-2.63t-2.21-7.46V77.76h-6.9v-5h6.9V63.58Z" transform="translate(0 0.48)"/><path class="cls-2" d="M447.18,97.29H425.82L421,110.64h-6.93l19.47-51h5.88l19.5,51H452ZM427.85,91.8h17.33L436.5,68Z" transform="translate(0 0.48)"/><path class="cls-2" d="M496.79,92.11q0,8.65-4,13.94a12.7,12.7,0,0,1-10.72,5.29q-6.9,0-10.85-4.38V125.2h-6.48V72.75h5.92L471,77q4-4.9,11-4.9a12.9,12.9,0,0,1,10.8,5.15q4,5.14,4,14.32Zm-6.47-.73q0-6.41-2.74-10.12a8.77,8.77,0,0,0-7.49-3.71,9.53,9.53,0,0,0-8.82,5.21v18.11a9.55,9.55,0,0,0,8.89,5.18,8.75,8.75,0,0,0,7.41-3.7Q490.31,98.66,490.32,91.38Z" transform="translate(0 0.48)"/><path class="cls-2" d="M537,92.11q0,8.65-4,13.94a12.7,12.7,0,0,1-10.71,5.29q-6.9,0-10.86-4.38V125.2H505V72.75h5.92l.32,4.2q3.94-4.9,11-4.9a12.9,12.9,0,0,1,10.8,5.15q4,5.14,4,14.32Zm-6.48-.73q0-6.41-2.73-10.12a8.78,8.78,0,0,0-7.49-3.71,9.53,9.53,0,0,0-8.83,5.21v18.11a9.55,9.55,0,0,0,8.9,5.18,8.74,8.74,0,0,0,7.4-3.7Q530.55,98.66,530.55,91.38Z" transform="translate(0 0.48)"/><path class="cls-2" d="M552.29,110.64h-6.47V56.85h6.47Z" transform="translate(0 0.48)"/><path class="cls-2" d="M575.05,101.15l8.83-28.4h6.93l-15.23,43.73q-3.54,9.47-11.24,9.46l-1.23-.11-2.41-.45v-5.26l1.75.14a8.62,8.62,0,0,0,5.13-1.33,9.69,9.69,0,0,0,3-4.86l1.43-3.85L558.53,72.75h7.07Z" transform="translate(0 0.48)"/></svg>